# xmcd
#
# Track frame offsets:
#   150
#   11300
#   24321
#   38163
#   48370
#   57250
#   68552
#   83883
#   94468
#   103205
#   116991
#   130120
#   143274
#   154380
#
# Disc length: 2252 seconds
#
# Revision: 0
# Processed by: cddbd v1.5.2PL0 Copyright (c) Steve Scherf et al.
# Submitted via: uFREEDB ActiveX Control 1.5
#
DISCID=b408ca0e
DTITLE=Milionário e José Rico - Caminhos da Vida - Vol. 7
DYEAR=1978
DGENRE=Sertanejo
TTITLE0=Caminhos da vida
TTITLE1=Seu Adeus, o motivo do meu pranto
TTITLE2=Canção deu um amor distante
TTITLE3=Silêncio da noite
TTITLE4=Minha cruz
TTITLE5=Doce saudade
TTITLE6=Berço de Deus
TTITLE7=Filho de ninguém
TTITLE8=Prisioneiro
TTITLE9=Apaixonado
TTITLE10=Pingo de amor
TTITLE11=Esperança perdida
TTITLE12=Minha Paixão
TTITLE13=Canção de amor
EXTD=
EXTT0=
EXTT1=
EXTT2=
EXTT3=
EXTT4=
EXTT5=
EXTT6=
EXTT7=
EXTT8=
EXTT9=
EXTT10=
EXTT11=
EXTT12=
EXTT13=
PLAYORDER=
